<svg xmlns="http://www.w3.org/2000/svg" width="276.4" height="204.205" viewBox="0 0 276.4 204.205"><defs><style>.a{fill:#e6e6e6;}.b{fill:#2f2e41;}.c{fill:#ffb9b9;}.d{fill:#575a89;}.e{opacity:0.1;}.f{fill:#f2f2f2;}.g{fill:#fff;}.h{fill:#00b0ff;}</style></defs><ellipse class="a" cx="45.021" cy="5.842" rx="45.021" ry="5.842" transform="translate(182.154 192.52)"/><path class="b" d="M893.386,681.665s2.419,8.333,4.032,10.483,2.957,5.645,2.15,6.182-2.419,6.989-.269,7.257,6.989-6.989,7.257-9.408,1.344-11.021,1.344-11.021,1.882-7.526-1.075-8.064-7.526-.806-7.526-.806Z" transform="translate(-663.728 -503.645)"/><path class="b" d="M844.467,721.989s-3.494,9.139-4.3,9.677-3.763,5.376,2.15,5.376,9.139-1.613,9.139-1.613l1.882-2.15s0-5.645-.538-6.451,0-4.838,0-4.838Z" transform="translate(-626.098 -535.098)"/><path class="b" d="M775.835,445.229s-4.3,29.03-.538,38.438,7.526,12.1,7.526,12.1l28.492,26.611s8.87-4.569,8.064-7.526c0,0-1.881-1.075-2.15-1.882s-3.763-1.075-3.763-1.075-1.613-1.882-1.613-2.957-13.977-20.16-18.547-21.5c0,0-2.419-2.957-2.15-3.494s-.806-2.419-.806-2.419l2.688-10.483,16.934-2.688s6.989-24.729,1.075-26.611S775.835,445.229,775.835,445.229Z" transform="translate(-581.389 -341.934)"/><path class="b" d="M852.556,514.184l.538,4.3s0,11.289-.538,12.365a3.764,3.764,0,0,0,0,3.763c.807,1.075,2.15,3.763,1.613,4.838s1.075,31.449-1.075,33.6a4.525,4.525,0,0,0-1.075,5.107c.269.269-.269,1.344-.269,1.344s-11.021,1.882-10.214,0,.806-2.957,1.344-3.494,0-1.344,0-1.344.806-8.6,0-9.139-3.226-26.342-3.226-26.611-.806-.806-.806-1.881,0-4.57-1.344-5.107-1.075-13.709-1.075-13.709Z" transform="translate(-624.511 -392.073)"/><path class="c" d="M797.913,206.358s1.075,8.064,4.3,9.677,5.376,2.419,5.376,2.419l-2.688,9.408-1.075,8.064H791.462l-6.72-5.376,2.15-8.87,1.075-1.613s1.344-5.913.269-7.8S797.913,206.358,797.913,206.358Z" transform="translate(-588.952 -180.207)"/><path class="d" d="M772.952,249.125l1.882,3.494s1.344-4.838,3.225-5.645,6.451-2.15,6.451-3.226-.269-3.763.806-3.763,11.558,3.226,13.171,4.3a4.236,4.236,0,0,1,1.881,2.15l-2.957,30.911s4.3,14.515,2.957,20.16-2.419,6.451-5.645,7.258-1.344-1.882-10.752.806a49.173,49.173,0,0,1-17.472,1.882,7.522,7.522,0,0,0-4.032,1.344c-.538.269-.269-1.344,1.613-3.763s1.075-6.451,1.075-6.451-2.15-6.989-.806-9.677,3.226-6.182,1.613-7.258-3.763-9.139-3.763-9.139l-5.914-20.966,12.1-8.333s-.538,3.763,1.344,4.57S772.952,249.125,772.952,249.125Z" transform="translate(-569.367 -203.352)"/><path class="d" d="M751.965,276.2h-1.613s-2.688,4.57-2.688,7.8,1.344,21.5,1.344,21.5l7.8,8.064,1.881-6.182.538-13.709Z" transform="translate(-563.432 -228.278)"/><path class="d" d="M756.253,365.91s-8.87-2.419-8.6,1.344,1.613,8.333,5.914,9.408,5.645-4.838,5.645-4.838S759.747,366.448,756.253,365.91Z" transform="translate(-563.419 -289.495)"/><path class="c" d="M873.869,407.264s-.538,12.365-3.763,13.709l7.8,1.882s3.763-12.9,3.226-13.44S873.869,407.264,873.869,407.264Z" transform="translate(-647.704 -318.484)"/><path class="b" d="M.709,0H5.747a.709.709,0,0,1,.709.709v12.82a.866.866,0,0,1-.866.866H.866A.866.866,0,0,1,0,13.529V.71A.709.709,0,0,1,.709,0Z" transform="translate(179.411 63.895) rotate(-23.598)"/><path class="e" d="M.709,0H5.747a.709.709,0,0,1,.709.709v12.82a.866.866,0,0,1-.866.866H.866A.866.866,0,0,1,0,13.529V.71A.709.709,0,0,1,.709,0Z" transform="translate(179.411 63.895) rotate(-23.598)"/><path class="b" d="M.709,0H5.1A.709.709,0,0,1,5.81.709V12.875a.866.866,0,0,1-.866.866H.867A.866.866,0,0,1,0,12.875V.71A.709.709,0,0,1,.709,0Z" transform="translate(179.673 64.495) rotate(-23.598)"/><ellipse class="f" cx="1.291" cy="1.309" rx="1.291" ry="1.309" transform="translate(181.793 67.085) rotate(-23.598)"/><path class="e" d="M872.324,266.682l1.747-2.554s6.451,9.945,5.914,16.665-1.075,6.989-1.075,8.064-1.344,1.075,0,2.419,3.226,3.226,2.15,4.3-1.882,1.075-1.613,2.419a17.781,17.781,0,0,1,.269,2.957s-2.285,4.435-3.091,4.435-8.467,7.123-8.467,6.317.806-6.451.806-7.257.269-3.494.806-4.3.538-.538,0-1.344-.538,0-.538-.806.269-1.882-.538-2.15-1.613,0-1.075-1.344,0-2.419-.269-2.419-1.613-.269-.806-1.075-1.613-16.4-1.613-16.4S865.335,270.714,872.324,266.682Z" transform="translate(-644.144 -219.969)"/><path class="d" d="M872.919,253.782l4.57,2.15s6.451,9.945,5.913,16.665-1.075,6.989-1.075,8.064-1.344,1.075,0,2.419,3.226,3.226,2.15,4.3-1.882,1.075-1.613,2.419a17.774,17.774,0,0,1,.269,2.957s-2.419,12.9-3.225,12.9-8.333-1.344-8.333-2.15.806-6.451.806-7.258.269-3.494.806-4.3.537-.538,0-1.344-.538,0-.538-.806.269-1.882-.538-2.15-1.613,0-1.075-1.344,0-2.419-.269-2.419-1.613-.269-.806-1.075-1.613-16.4-1.613-16.4S865.93,257.814,872.919,253.782Z" transform="translate(-646.217 -212.847)"/><path class="c" d="M744.117,350.516a1.127,1.127,0,0,1-1.3-.585c-1.235-2.47-4.582-9.714-1.462-9.936,2.878-.206,5.442,5.407,6.488,8.058a1.28,1.28,0,0,1-.865,1.709Z" transform="translate(-558.202 -272.181)"/><circle class="c" cx="9.945" cy="9.945" r="9.945" transform="translate(191.49 13.786)"/><path class="b" d="M775.414,161.021a19.6,19.6,0,0,1-3.823.9,3.175,3.175,0,0,1-2.814-.482,2.383,2.383,0,0,1-.105-2.725,26.113,26.113,0,0,1,1.753-2.328c.871-1.258,1.385-2.926,2.778-3.56a5.109,5.109,0,0,1,1.808-.338c3.614-.23,7.375-.438,10.722.945a7.892,7.892,0,0,1,3.236,2.3,8.6,8.6,0,0,1,1.294,2.508,16.37,16.37,0,0,1-2.945,15.719c-1.22-1.1-.689-3.638-2.233-4.2-.506-.184-1.079-.056-1.6-.2-1.63-.457-1.548-2.976-2.9-3.988a2.591,2.591,0,0,1-.773-.635,1.581,1.581,0,0,1-.15-.8c-.01-.944.433-3.341-.467-3.987C778.275,159.5,776.294,160.7,775.414,161.021Z" transform="translate(-577.634 -143.017)"/><path class="a" d="M739.053,671.739s-.731-15.725-15.719-13.9" transform="translate(-546.686 -490.846)"/><path class="a" d="M976.485,553.609s.731-15.725,15.719-13.9" transform="translate(-720.922 -409.542)"/><path class="a" d="M975.032,677.67c-.019-.166-1.8-16.656,5.409-25.382a14.672,14.672,0,0,1,10.6-5.361l.048.622a14.071,14.071,0,0,0-10.162,5.135c-7.04,8.521-5.29,24.753-5.272,24.916Z" transform="translate(-719.779 -483.436)"/><path class="a" d="M68.348,169.893H188.881v39.569h-4.566V219.81l-10.349-10.349H68.348Z" transform="translate(-47.042 -116.932)"/><rect class="g" width="113.837" height="31.655" transform="translate(24.654 56.814)"/><rect class="h" width="54.809" height="1.663" transform="translate(33.808 66.056)"/><rect class="a" width="95.528" height="1.663" transform="translate(33.808 71.81)"/><rect class="a" width="95.435" height="1.663" transform="translate(33.808 77.564)"/><path class="a" d="M120.533,339.785H0v39.569H4.566V389.7l10.349-10.349H120.533Z" transform="translate(0 -233.862)"/><rect class="g" width="113.837" height="31.655" transform="translate(3.348 109.776)"/><rect class="h" width="54.809" height="1.663" transform="translate(13.415 119.322)"/><rect class="a" width="95.528" height="1.663" transform="translate(13.415 125.076)"/><rect class="a" width="95.435" height="1.663" transform="translate(13.415 130.83)"/><path class="a" d="M120.533,0H0V39.569H4.566V49.918L14.914,39.569H120.533Z"/><rect class="g" width="113.837" height="31.655" transform="translate(3.348 3.853)"/><rect class="h" width="54.809" height="1.663" transform="translate(13.415 13.4)"/><rect class="a" width="95.528" height="1.663" transform="translate(13.415 19.154)"/><rect class="a" width="95.435" height="1.663" transform="translate(13.415 24.907)"/><rect class="a" width="0.623" height="34.291" transform="translate(191.811 162.592)"/><rect class="a" width="0.623" height="68.893" transform="translate(254.781 127.99)"/><circle class="h" cx="5.118" cy="5.118" r="5.118" transform="translate(187.249 153.47)"/><circle class="h" cx="5.118" cy="5.118" r="5.118" transform="translate(250.445 118.107)"/><circle class="a" cx="5.118" cy="5.118" r="5.118" transform="translate(266.164 158.684)"/></svg>